<svg width="26" height="25" viewBox="0 0 27 26" fill="none" xmlns="http://www.w3.org/2000/svg">
    <path
        d="M9.70677 25.5C9.37147 25.5 9.04991 25.3683 8.81282 25.1339C8.57573 24.8995 8.44253 24.5815 8.44253 24.25V20.5H3.38559C2.715 20.5 2.07187 20.2366 1.59769 19.7678C1.12351 19.2989 0.857117 18.663 0.857117 18V3C0.857117 1.6125 1.99493 0.5 3.38559 0.5H23.6134C24.284 0.5 24.9271 0.763392 25.4013 1.23223C25.8754 1.70107 26.1418 2.33696 26.1418 3V18C26.1418 18.663 25.8754 19.2989 25.4013 19.7678C24.9271 20.2366 24.284 20.5 23.6134 20.5H15.9015L11.2239 25.1375C10.971 25.375 10.6549 25.5 10.3389 25.5H9.70677ZM10.971 18V21.85L14.8649 18H23.6134V3H3.38559V18H10.971ZM19.8207 11.75H17.2922V9.25H19.8207V11.75ZM14.7637 11.75H12.2352V9.25H14.7637V11.75ZM9.70677 11.75H7.1783V9.25H9.70677V11.75Z"
        fill="#0F0F0F" />
</svg>
    