<svg
    width="15.63"
    height="8"
    viewBox="0 0 21 12"
    fill="none"
    xmlns="http://www.w3.org/2000/svg"
    opacity="0.5"
>
    <path
        d="M18.5735 1.03341C18.669 0.943191 18.7813 0.872661 18.904 0.825845C19.0267 0.77903 19.1575 0.756845 19.2888 0.76056C19.4201 0.764274 19.5494 0.793814 19.6693 0.847493C19.7891 0.901172 19.8973 0.977938 19.9875 1.07341C20.0777 1.16888 20.1482 1.28119 20.1951 1.40392C20.2419 1.52664 20.2641 1.65739 20.2603 1.78869C20.2566 1.92 20.2271 2.04928 20.1734 2.16917C20.1197 2.28905 20.043 2.39719 19.9475 2.48741L10.9475 10.9874C10.7618 11.1629 10.516 11.2608 10.2605 11.2608C10.005 11.2608 9.75916 11.1629 9.57349 10.9874L0.572493 2.48741C0.474932 2.39779 0.396149 2.28967 0.340725 2.16934C0.285301 2.04902 0.254337 1.91888 0.249634 1.78648C0.24493 1.65409 0.266581 1.52208 0.313326 1.39812C0.360071 1.27417 0.430981 1.16073 0.521935 1.06441C0.612888 0.968091 0.722076 0.890803 0.843153 0.837037C0.96423 0.783271 1.09478 0.754098 1.22723 0.751214C1.35968 0.748329 1.49138 0.77179 1.61468 0.820234C1.73798 0.868678 1.85043 0.941139 1.94549 1.03341L10.2605 8.88541L18.5735 1.03341Z"
        fill="#FEFEFE"
    />
</svg>