<svg width="24" height="24" viewBox="0 0 24 24" fill="none" xmlns="http://www.w3.org/2000/svg">
    <path
        d="M3.42651 16.9666C3.33104 17.0568 3.21873 17.1273 3.096 17.1742C2.97327 17.221 2.84252 17.2432 2.71122 17.2394C2.57992 17.2357 2.45064 17.2062 2.33075 17.1525C2.21086 17.0988 2.10273 17.0221 2.01251 16.9266C1.92229 16.8311 1.85176 16.7188 1.80494 16.5961C1.75813 16.4734 1.73594 16.3426 1.73966 16.2113C1.74337 16.08 1.77291 15.9507 1.82659 15.8308C1.88027 15.7109 1.95704 15.6028 2.05251 15.5126L11.0525 7.01259C11.2382 6.83706 11.484 6.73925 11.7395 6.73925C11.995 6.73925 12.2408 6.83706 12.4265 7.01259L21.4275 15.5126C21.5251 15.6022 21.6039 15.7103 21.6593 15.8307C21.7147 15.951 21.7457 16.0811 21.7504 16.2135C21.7551 16.3459 21.7334 16.4779 21.6867 16.6019C21.6399 16.7258 21.569 16.8393 21.4781 16.9356C21.3871 17.0319 21.2779 17.1092 21.1568 17.163C21.0358 17.2167 20.9052 17.2459 20.7728 17.2488C20.6403 17.2517 20.5086 17.2282 20.3853 17.1798C20.262 17.1313 20.1496 17.0589 20.0545 16.9666L11.7395 9.11459L3.42651 16.9666Z"
        fill="#333333" />
</svg>
    