<svg width="24" height="24" viewBox="0 0 24 24" fill="none" xmlns="http://www.w3.org/2000/svg">
    <path
        d="M20.5735 7.03341C20.669 6.94319 20.7813 6.87266 20.904 6.82585C21.0267 6.77903 21.1575 6.75685 21.2888 6.76056C21.4201 6.76427 21.5494 6.79381 21.6693 6.84749C21.7891 6.90117 21.8973 6.97794 21.9875 7.07341C22.0777 7.16888 22.1482 7.28119 22.1951 7.40392C22.2419 7.52664 22.2641 7.65739 22.2603 7.78869C22.2566 7.92 22.2271 8.04928 22.1734 8.16917C22.1197 8.28905 22.043 8.39719 21.9475 8.48741L12.9475 16.9874C12.7618 17.1629 12.516 17.2608 12.2605 17.2608C12.005 17.2608 11.7592 17.1629 11.5735 16.9874L2.57249 8.48741C2.47493 8.39779 2.39615 8.28967 2.34072 8.16934C2.2853 8.04902 2.25434 7.91888 2.24963 7.78648C2.24493 7.65409 2.26658 7.52208 2.31333 7.39812C2.36007 7.27417 2.43098 7.16073 2.52193 7.06441C2.61289 6.96809 2.72208 6.8908 2.84315 6.83704C2.96423 6.78327 3.09478 6.7541 3.22723 6.75121C3.35968 6.74833 3.49138 6.77179 3.61468 6.82023C3.73798 6.86868 3.85043 6.94114 3.94549 7.03341L12.2605 14.8854L20.5735 7.03341Z"
        fill="#333333" />
</svg>
    