<svg width="50" height="50" viewBox="0 0 50 50" fill="none" xmlns="http://www.w3.org/2000/svg">
    <g clip-path="url(#clip0_2166_15283)">
        <path opacity="0.975" fill-rule="evenodd" clip-rule="evenodd"
            d="M47.6074 -0.0488281C48.2259 -0.0488281 48.8444 -0.0488281 49.4629 -0.0488281C49.6257 0.113933 49.7884 0.276692 49.9512 0.439453C49.9512 1.05794 49.9512 1.67644 49.9512 2.29492C49.2861 8.473 47.4145 14.2673 44.3359 19.6777C42.6136 22.5078 40.4651 24.9818 37.8906 27.0996C38.2708 28.0119 38.5964 28.956 38.8672 29.9316C39.2832 32.7613 38.4205 35.1213 36.2793 37.0117C33.4339 39.4034 30.1462 40.5753 26.416 40.5273C25.7945 40.1035 25.6806 39.5664 26.0742 38.916C27.669 37.3531 28.1572 35.5302 27.5391 33.4473C26.0363 34.1001 24.49 34.6372 22.9004 35.0586C22.3107 35.1046 21.7248 35.1046 21.1426 35.0586C19.8084 37.6653 17.6926 39.2604 14.7949 39.8438C13.1651 40.3162 11.505 40.544 9.81445 40.5273C9.38399 40.2579 9.22123 39.8673 9.32617 39.3555C9.4914 37.2923 9.93086 35.2903 10.6445 33.3496C11.4323 31.2597 12.8321 29.7298 14.8438 28.7598C14.7978 28.1775 14.7978 27.5916 14.8438 27.002C15.2651 25.4123 15.8022 23.866 16.4551 22.3633C14.372 21.7427 12.5491 22.231 10.9863 23.8281C10.3359 24.2218 9.79883 24.1078 9.375 23.4863C9.32691 19.7565 10.4987 16.4688 12.8906 13.623C14.7811 11.4818 17.141 10.6191 19.9707 11.0352C20.9464 11.306 21.8904 11.6315 22.8027 12.0117C26.5283 7.62392 31.1182 4.46637 36.5723 2.53906C40.1661 1.25792 43.8445 0.395286 47.6074 -0.0488281Z"
            fill="#010100" />
        <path fill-rule="evenodd" clip-rule="evenodd"
            d="M47.0215 2.00195C47.3145 2.00195 47.6074 2.00195 47.9004 2.00195C47.6386 4.90638 47.0526 7.73841 46.1426 10.498C43.864 8.2845 41.6179 6.03841 39.4043 3.75977C40.1682 3.46721 40.9494 3.22307 41.748 3.02734C43.5066 2.61369 45.2645 2.27189 47.0215 2.00195Z"
            fill="#FB5048" />
        <path fill-rule="evenodd" clip-rule="evenodd"
            d="M37.0605 4.44317C37.1633 4.42857 37.2609 4.44485 37.3535 4.49199C40.0391 7.17754 42.7246 9.86309 45.4101 12.5486C43.2893 18.772 39.5296 23.7687 34.1309 27.5389C32.2738 28.8261 30.3207 29.9653 28.2715 30.9568C28.1413 31.022 28.011 31.022 27.8809 30.9568C24.9023 27.9783 21.9238 24.9998 18.9453 22.0213C18.8802 21.8911 18.8802 21.7608 18.9453 21.6307C21.2687 16.736 24.5077 12.553 28.6621 9.08184C31.2445 7.15559 34.0439 5.60936 37.0605 4.44317Z"
            fill="#FDFDFD" />
        <path fill-rule="evenodd" clip-rule="evenodd"
            d="M34.0332 9.91211C37.0043 9.58169 38.9737 10.8186 39.9414 13.623C40.3158 16.3423 39.2579 18.2466 36.7676 19.3359C34.6291 19.9937 32.8225 19.4892 31.3476 17.8223C30.1067 15.9606 30.0091 14.04 31.0547 12.0605C31.8194 11.0178 32.8123 10.3017 34.0332 9.91211Z"
            fill="#030303" />
        <path fill-rule="evenodd" clip-rule="evenodd"
            d="M34.7168 11.7676C37.1666 11.8889 38.2571 13.1584 37.9883 15.5762C37.3054 17.1958 36.0847 17.8631 34.3262 17.5781C32.4846 16.7426 31.8824 15.3592 32.5195 13.4277C33.0464 12.5903 33.7788 12.037 34.7168 11.7676Z"
            fill="#79D5E5" />
        <path fill-rule="evenodd" clip-rule="evenodd"
            d="M17.5293 12.9394C18.9422 12.7259 20.2443 13.0025 21.4355 13.7694C19.9094 15.8602 18.5422 18.0574 17.334 20.3612C15.3885 19.7317 13.5005 19.8945 11.6699 20.8495C12.083 18.0869 13.3525 15.792 15.4785 13.9648C16.1177 13.5149 16.8013 13.1732 17.5293 12.9394Z"
            fill="#FC5148" />
        <path fill-rule="evenodd" clip-rule="evenodd"
            d="M29.2481 19.287C30.3491 19.2137 30.7561 19.702 30.4688 20.7518C29.9277 21.4556 29.293 22.0578 28.5645 22.5584C27.5903 22.6582 27.1834 22.2188 27.3438 21.2401C27.9328 20.5371 28.5676 19.8862 29.2481 19.287Z"
            fill="#0A0A0A" />
        <path fill-rule="evenodd" clip-rule="evenodd"
            d="M25.0488 23.4865C26.1387 23.323 26.5781 23.7787 26.3672 24.8537C26.0451 25.3146 25.6057 25.4611 25.0488 25.2931C24.3994 24.6791 24.3994 24.0769 25.0488 23.4865Z"
            fill="#050505" />
        <path fill-rule="evenodd" clip-rule="evenodd"
            d="M17.9199 23.877C20.68 26.4741 23.3817 29.1435 26.0254 31.8848C24.8468 32.3666 23.6424 32.7735 22.4121 33.1055C22.0915 33.178 21.7985 33.1129 21.5332 32.9102C20.0195 31.3965 18.5059 29.8828 16.9922 28.3691C16.7799 28.0717 16.7148 27.7461 16.7969 27.3926C17.1233 26.2018 17.4977 25.0299 17.9199 23.877Z"
            fill="#FB5148" />
        <path opacity="0.927" fill-rule="evenodd" clip-rule="evenodd"
            d="M8.64258 26.123C9.79317 26.1447 10.1675 26.6981 9.76563 27.7832C8.77278 28.7761 7.77995 29.7688 6.78711 30.7617C5.88198 31.1556 5.32859 30.8788 5.12695 29.9316C5.15262 29.6848 5.23399 29.4569 5.37109 29.248C6.4218 28.1481 7.5123 27.1064 8.64258 26.123Z"
            fill="#2A2A2A" />
        <path fill-rule="evenodd" clip-rule="evenodd"
            d="M36.084 28.4668C36.9127 29.6352 37.1894 30.9373 36.9141 32.373C36.5649 33.576 35.9302 34.6014 35.0098 35.4492C33.2854 36.9627 31.2998 37.8904 29.0527 38.2324C29.7978 36.6845 30.0745 35.0569 29.8828 33.3496C29.7979 33.0732 29.684 32.8128 29.541 32.5684C31.8434 31.3697 34.0244 30.0025 36.084 28.4668Z"
            fill="#FC5148" />
        <path fill-rule="evenodd" clip-rule="evenodd"
            d="M15.9668 30.4201C16.1009 30.4048 16.2312 30.4211 16.3574 30.469C17.3828 31.4943 18.4082 32.5197 19.4336 33.5451C18.9829 35.2671 17.9249 36.4878 16.2598 37.2072C14.7154 37.813 13.1204 38.2199 11.4746 38.4279C11.6625 36.472 12.1996 34.6165 13.0859 32.8615C13.8545 31.8158 14.8148 31.0021 15.9668 30.4201Z"
            fill="#FCDB77" />
        <path opacity="0.934" fill-rule="evenodd" clip-rule="evenodd"
            d="M-0.0488281 41.162C-0.0488281 40.8365 -0.0488281 40.511 -0.0488281 40.1855C2.30781 37.8777 4.65156 35.5502 6.98242 33.2031C7.61989 32.9212 8.12445 33.0677 8.49609 33.6425C8.60106 34.0681 8.53595 34.4587 8.30078 34.8144C6.07097 37.0442 3.84114 39.274 1.61133 41.5038C0.952764 41.8642 0.399378 41.7502 -0.0488281 41.162Z"
            fill="#2A2A2A" />
        <path opacity="0.928" fill-rule="evenodd" clip-rule="evenodd"
            d="M22.3144 39.9902C23.5811 39.9204 23.9879 40.4738 23.5352 41.6504C22.5749 42.6107 21.6145 43.571 20.6543 44.5313C20.0039 44.9249 19.4668 44.8109 19.043 44.1895C18.9612 43.8189 18.9937 43.4608 19.1406 43.1152C20.1883 42.0512 21.2463 41.0095 22.3144 39.9902Z"
            fill="#2A2A2A" />
        <path opacity="0.934" fill-rule="evenodd" clip-rule="evenodd"
            d="M1.9043 49.951C1.57878 49.951 1.25325 49.951 0.927734 49.951C0.339539 49.5028 0.225608 48.9495 0.585937 48.2909C2.81575 46.0611 5.04558 43.8312 7.27539 41.6014C7.85102 41.2422 8.38813 41.2911 8.88672 41.7479C9.07351 42.1413 9.07351 42.532 8.88672 42.9198C6.53956 45.2506 4.21208 47.5944 1.9043 49.951Z"
            fill="#2A2A2A" />
        <path opacity="0.934" fill-rule="evenodd" clip-rule="evenodd"
            d="M9.7168 49.951C9.39128 49.951 9.06575 49.951 8.74023 49.951C8.15204 49.5028 8.03811 48.9495 8.39844 48.2909C10.6282 46.0611 12.8581 43.8312 15.0879 41.6014C15.6635 41.2422 16.2006 41.2911 16.6992 41.7479C16.886 42.1413 16.886 42.532 16.6992 42.9198C14.3521 45.2506 12.0246 47.5944 9.7168 49.951Z"
            fill="#2A2A2A" />
    </g>
    <defs>
        <clipPath id="clip0_2166_15283">
            <rect width="50" height="50" fill="white" />
        </clipPath>
    </defs>
</svg>
    